<?xml version="1.0" standalone="no"?>
<!DOCTYPE svg PUBLIC "-//W3C//DTD SVG 20010904//EN"
 "http://www.w3.org/TR/2001/REC-SVG-20010904/DTD/svg10.dtd">
<svg version="1.0" xmlns="http://www.w3.org/2000/svg"
 width="700.000000pt" height="700.000000pt" viewBox="0 0 700.000000 700.000000"
 preserveAspectRatio="xMidYMid meet">
<metadata>
Created by potrace 1.14, written by Peter Selinger 2001-2017
</metadata>
<g transform="translate(0.000000,700.000000) scale(0.100000,-0.100000)"
fill="#000000" stroke="none">
<path d="M800 6984 c-367 -61 -656 -317 -771 -684 l-24 -75 0 -2740 0 -2740
29 -85 c106 -314 339 -547 640 -639 l68 -21 2752 0 c2270 0 2760 3 2801 14
358 96 643 416 695 781 8 59 10 794 8 2745 l-3 2665 -28 89 c-55 175 -129 300
-246 417 -145 145 -310 232 -521 275 -19 4 -1225 8 -2680 9 -2086 1 -2661 -1
-2720 -11z"/>
</g>
</svg>
