<?xml version="1.0" encoding="UTF-8" standalone="no"?>
<!DOCTYPE svg PUBLIC "-//W3C//DTD SVG 1.1//EN" "http://www.w3.org/Graphics/SVG/1.1/DTD/svg11.dtd">
<!-- Created with Vectornator (http://vectornator.io/) -->
<svg height="100%" stroke-miterlimit="10" style="fill-rule:nonzero;clip-rule:evenodd;stroke-linecap:round;stroke-linejoin:round;" version="1.1" viewBox="0 0 30 30" width="100%" xml:space="preserve" xmlns="http://www.w3.org/2000/svg" xmlns:vectornator="http://vectornator.io" xmlns:xlink="http://www.w3.org/1999/xlink">
<defs/>
<g id="Layer-1" vectornator:layerName="Layer 1">
<path d="M8.57067 18.4977C8.57067 14.939 11.4556 12.0542 15.0142 12.0542C18.5729 12.0542 21.4578 14.939 21.4578 18.4977C21.4578 22.0564 18.5729 24.9413 15.0142 24.9413C11.4556 24.9413 8.57067 22.0564 8.57067 18.4977Z" fill="#ffffff" fill-rule="nonzero" opacity="1" stroke="none" vectornator:layerName="path"/>
<path d="M14.0646 10.9347L7.0907 10.9347L7.0907 5.65948L14.0646 10.9347Z" fill="#ffffff" fill-rule="nonzero" opacity="1" stroke="none" vectornator:layerName="path"/>
<path d="M15.2269 7.71096C13.4578 7.71096 11.8702 8.27659 10.7419 9.1763L9.37659 8.13357C10.8535 6.97067 12.9255 6.24562 15.2269 6.24562C18.8208 6.24562 21.8614 8.01107 22.9377 10.4558L21.1036 10.9183C20.283 9.05556 17.9653 7.71096 15.2269 7.71096Z" fill="#ffffff" fill-rule="nonzero" opacity="1" stroke="none" vectornator:layerName="path"/>
</g>
</svg>
