<?xml version="1.0" encoding="UTF-8" standalone="no"?>
<!DOCTYPE svg PUBLIC "-//W3C//DTD SVG 1.1//EN" "http://www.w3.org/Graphics/SVG/1.1/DTD/svg11.dtd">
<!-- Created with Vectornator (http://vectornator.io/) -->
<svg height="100%" stroke-miterlimit="10" style="fill-rule:nonzero;clip-rule:evenodd;stroke-linecap:round;stroke-linejoin:round;" version="1.1" viewBox="0 0 30 30" width="100%" xml:space="preserve" xmlns="http://www.w3.org/2000/svg" xmlns:vectornator="http://vectornator.io" xmlns:xlink="http://www.w3.org/1999/xlink">
<defs/>
<g id="Layer-1" vectornator:layerName="Layer 1">
<path d="M11.5754 23.5035L18.461 23.5035C19.6482 23.5035 20.408 22.7991 20.4634 21.604L20.9699 10.8719L21.7535 10.8719C22.165 10.8719 22.4737 10.5632 22.4737 10.1596C22.4737 9.75593 22.165 9.44727 21.7535 9.44727L18.4689 9.44727L18.4689 8.33923C18.4689 7.15996 17.725 6.4714 16.4349 6.4714L13.5857 6.4714C12.2956 6.4714 11.5437 7.15996 11.5437 8.33923L11.5437 9.44727L8.275 9.44727C7.87136 9.44727 7.55478 9.75593 7.55478 10.1596C7.55478 10.5632 7.87136 10.8719 8.275 10.8719L9.06646 10.8719L9.56507 21.6119C9.62048 22.807 10.3724 23.5035 11.5754 23.5035ZM13.0396 8.40255C13.0396 8.03848 13.2928 7.80104 13.6885 7.80104L16.3241 7.80104C16.7277 7.80104 16.981 8.03848 16.981 8.40255L16.981 9.44727L13.0396 9.44727L13.0396 8.40255ZM11.7495 22.063C11.3379 22.063 11.053 21.7702 11.0293 21.327L10.5386 10.8719L19.4741 10.8719L18.9992 21.327C18.9755 21.7702 18.6985 22.063 18.279 22.063L11.7495 22.063ZM12.81 20.8917C13.1504 20.8917 13.3641 20.678 13.3561 20.3693L13.1266 12.6131C13.1187 12.2965 12.8971 12.0986 12.5805 12.0986C12.2481 12.0986 12.0344 12.3044 12.0502 12.621L12.2718 20.3772C12.2798 20.6859 12.5014 20.8917 12.81 20.8917ZM15.0182 20.8917C15.3427 20.8917 15.5643 20.6859 15.5643 20.3772L15.5643 12.6131C15.5643 12.3044 15.3427 12.0986 15.0182 12.0986C14.6937 12.0986 14.4642 12.3044 14.4642 12.6131L14.4642 20.3772C14.4642 20.6859 14.6937 20.8917 15.0182 20.8917ZM17.2184 20.8917C17.5271 20.8917 17.7487 20.6859 17.7566 20.3772L17.9782 12.621C17.9941 12.3044 17.7804 12.0986 17.448 12.0986C17.1314 12.0986 16.9098 12.3044 16.9019 12.6131L16.6802 20.3693C16.6644 20.678 16.8781 20.8917 17.2184 20.8917Z" fill="#ffffff" opacity="1" stroke="none"/>
</g>
</svg>
